<svg width="70" height="48" viewBox="0 0 70 48" fill="none" xmlns="http://www.w3.org/2000/svg">
<rect width="70" height="48" rx="4" fill="#F3FBFF"/>
<path d="M30.4649 35.5377L30.8939 32.8127L29.9383 32.7905H25.375L28.5463 12.6822C28.556 12.6215 28.5881 12.5649 28.6348 12.5247C28.6816 12.4845 28.7416 12.4624 28.8039 12.4624H36.4983C39.0528 12.4624 40.8156 12.9939 41.736 14.0431C42.1674 14.5353 42.4423 15.0496 42.5752 15.6156C42.7146 16.2095 42.7172 16.9191 42.5809 17.7845L42.571 17.8477V18.4022L43.0026 18.6467C43.3661 18.8394 43.6546 19.0601 43.8761 19.3128C44.2454 19.7336 44.4842 20.2684 44.585 20.9025C44.6891 21.5547 44.6546 22.3307 44.4842 23.2092C44.2872 24.2199 43.9689 25.1001 43.5391 25.8203C43.1436 26.4839 42.6399 27.0342 42.0421 27.4609C41.4711 27.8661 40.7927 28.1738 40.0257 28.3708C39.2824 28.5642 38.4351 28.6619 37.5057 28.6619H36.9068C36.4787 28.6619 36.0627 28.8161 35.7363 29.0926C35.409 29.3748 35.1923 29.7602 35.1259 30.1819L35.0808 30.4272L34.3228 35.23L34.2884 35.4064C34.2794 35.4623 34.2638 35.4902 34.2409 35.5091C34.2203 35.5261 34.1908 35.5377 34.162 35.5377H30.4649Z" fill="#253B80"/>
<path d="M43.4161 17.9128C43.3932 18.0596 43.367 18.2097 43.3375 18.3639C42.3226 23.5737 38.8512 25.3735 34.4173 25.3735H32.1598C31.6177 25.3735 31.1608 25.7672 31.0762 26.3021L29.9203 33.6325L29.5931 35.7102C29.538 36.0613 29.8089 36.378 30.1631 36.378H34.1672C34.6414 36.378 35.044 36.0335 35.1186 35.5659L35.158 35.3624L35.912 30.5783L35.9604 30.316C36.0341 29.8468 36.4376 29.5022 36.9118 29.5022H37.5106C41.3898 29.5022 44.4268 27.9272 45.3144 23.3695C45.6851 21.4655 45.4932 19.8758 44.512 18.7577C44.2152 18.4205 43.8468 18.1408 43.4161 17.9128Z" fill="#179BD7"/>
<path d="M42.3488 17.4883C42.1939 17.4431 42.0338 17.4021 41.8697 17.3652C41.7048 17.3291 41.5358 17.2971 41.362 17.2693C40.7532 17.1708 40.0864 17.1241 39.3718 17.1241H33.341C33.1924 17.1241 33.0515 17.1577 32.9251 17.2184C32.647 17.3521 32.4404 17.6154 32.3903 17.9378L31.1071 26.0638L31.0703 26.3009C31.1548 25.766 31.6118 25.3723 32.1539 25.3723H34.4114C38.8453 25.3723 42.3169 23.5717 43.3316 18.3627C43.3618 18.2085 43.3873 18.0584 43.4102 17.9116C43.1535 17.7754 42.8754 17.6589 42.5759 17.5596C42.5023 17.535 42.426 17.5112 42.3488 17.4883Z" fill="#222D65"/>
<path d="M32.3942 17.9383C32.4442 17.616 32.6511 17.3526 32.929 17.2197C33.0563 17.159 33.1966 17.1254 33.3449 17.1254H39.3759C40.0905 17.1254 40.7573 17.1722 41.3659 17.2706C41.5399 17.2985 41.709 17.3305 41.8738 17.3666C42.0379 17.4035 42.1978 17.4445 42.3529 17.4896C42.4299 17.5126 42.5061 17.5364 42.5808 17.5602C42.8802 17.6594 43.1583 17.7767 43.415 17.9121C43.717 15.9868 43.4127 14.676 42.3718 13.489C41.2242 12.1822 39.1528 11.6228 36.5024 11.6228H28.8078C28.2663 11.6228 27.8047 12.0165 27.7208 12.5522L24.516 32.8672C24.4528 33.2691 24.7628 33.6318 25.168 33.6318H29.9185L31.1113 26.0643L32.3942 17.9383Z" fill="#253B80"/>
</svg>
