<svg width="70" height="48" viewBox="0 0 70 48" fill="none" xmlns="http://www.w3.org/2000/svg">
<rect width="70" height="48" rx="4" fill="#EBF3FA"/>
<path d="M29.9501 32.1656H25.9922L28.4678 16.8584H32.4255L29.9501 32.1656Z" fill="#00579F"/>
<path d="M44.2947 17.2327C43.514 16.923 42.2758 16.5811 40.7447 16.5811C36.8361 16.5811 34.0837 18.6653 34.0668 21.6452C34.0343 23.8438 36.0374 25.0649 37.5356 25.798C39.0669 26.5471 39.5874 27.036 39.5874 27.7037C39.5718 28.7292 38.35 29.2019 37.2105 29.2019C35.6303 29.2019 34.7836 28.9581 33.4969 28.3876L32.9757 28.1431L32.4219 31.5792C33.3502 32.0021 35.0604 32.3774 36.8361 32.3939C40.989 32.3939 43.6928 30.3418 43.7248 27.1663C43.7406 25.4238 42.6829 24.0886 40.4025 22.9975C39.0182 22.2971 38.1704 21.8249 38.1704 21.1082C38.1866 20.4568 38.8875 19.7895 40.4501 19.7895C41.7368 19.7568 42.6822 20.0661 43.3984 20.3756L43.7564 20.5381L44.2947 17.2327Z" fill="#00579F"/>
<path d="M49.5611 26.7428C49.8871 25.8634 51.1413 22.46 51.1413 22.46C51.1249 22.4927 51.4666 21.5644 51.6621 20.9945L51.9387 22.3134C51.9387 22.3134 52.6882 25.9775 52.8509 26.7428C52.2324 26.7428 50.3429 26.7428 49.5611 26.7428ZM54.4467 16.8584H51.3852C50.4411 16.8584 49.7239 17.135 49.3165 18.1284L43.4375 32.1654H47.5905C47.5905 32.1654 48.2742 30.2761 48.4211 29.8692C48.8767 29.8692 52.9167 29.8692 53.5028 29.8692C53.6165 30.4066 53.9751 32.1654 53.9751 32.1654H57.6398L54.4467 16.8584Z" fill="#00579F"/>
<path d="M22.6859 16.8584L18.8098 27.2964L18.3862 25.1795C17.6696 22.7368 15.4221 20.0829 12.9141 18.7632L16.4645 32.1494H20.6499L26.8711 16.8584H22.6859Z" fill="#00579F"/>
<path d="M15.2066 16.8584H8.83858L8.77344 17.1677C13.7409 18.4379 17.0307 21.4999 18.3823 25.1801L16.998 18.1451C16.7701 17.1675 16.0697 16.8906 15.2066 16.8584Z" fill="#FAA61A"/>
</svg>
